<svg width="500" height="500" viewBox="0 0 500 500" fill="none" xmlns="http://www.w3.org/2000/svg">
<rect width="500" height="500" fill="#2F2E41"/>
<path d="M250.994 437.495C245.327 437.476 239.686 436.729 234.201 435.271L233.12 434.965L232.117 434.451C195.861 415.842 165.275 391.263 141.206 361.396C121.282 336.527 105.749 308.291 95.3041 277.957C82.8139 241.641 76.8049 203.321 77.5639 164.827C77.5792 164.019 77.5922 163.395 77.5922 162.965C77.5922 144.253 87.7385 127.834 103.441 121.136C115.459 116.01 224.577 70.1295 232.461 66.8145C247.309 59.1986 263.149 65.5553 265.683 66.6669C271.369 69.0466 372.242 111.282 394.04 121.908C416.506 132.859 422.5 152.533 422.5 162.431C422.5 207.243 414.919 249.123 399.966 286.908C387.891 317.493 370.776 345.728 349.368 370.384C308.063 417.968 266.747 434.837 266.348 434.985C261.41 436.725 256.215 437.574 250.994 437.495ZM241.278 412.857C244.86 413.68 253.107 414.913 258.482 412.905C265.31 410.356 299.891 391.999 332.206 354.773C376.853 303.338 399.508 238.681 399.541 162.596C399.461 161.055 398.392 150.061 384.17 143.128C362.794 132.708 257.945 88.8198 256.889 88.3774L256.599 88.2517C254.402 87.3092 247.409 85.3238 242.589 87.9096L241.623 88.3702C240.455 88.8615 124.625 137.562 112.272 142.831C103.63 146.517 100.551 155.648 100.551 162.965C100.551 163.5 100.538 164.277 100.519 165.283C99.5313 217.342 111.3 345.446 241.278 412.857Z" fill="#3F3D56"/>
<path d="M237.252 77.6097C237.252 77.6097 120.208 126.72 107.667 132.058C95.1269 137.396 88.8567 150.207 88.8567 163.018C88.8567 175.83 79.4514 342.999 237.252 423.826C237.252 423.826 251.574 427.874 262.439 423.826C273.305 419.777 411.25 351.451 411.25 162.484C411.25 162.484 411.25 143.267 389.304 132.591C367.359 121.915 261.255 77.6097 261.255 77.6097C261.255 77.6097 248.225 71.7379 237.252 77.6097Z" fill="#6C63FF"/>
<path opacity="0.1" d="M250 116.25V378.125C250 378.125 132.088 320.078 133.132 167.474L250 116.25Z" fill="black"/>
<path d="M251.374 304.375L213.75 255.038L235.63 237.682L253.444 261.042L313.625 196.25L333.75 215.696L251.374 304.375Z" fill="white"/>
</svg>
